<?xml version="1.0" encoding="utf-8"?>
<!-- Generator: Adobe Illustrator 25.2.1, SVG Export Plug-In . SVG Version: 6.00 Build 0)  -->
<svg version="1.1" id="Layer_1" xmlns="http://www.w3.org/2000/svg" xmlns:xlink="http://www.w3.org/1999/xlink" x="0px" y="0px"
	 viewBox="0 0 284.1 351.1" style="enable-background:new 0 0 284.1 351.1;" xml:space="preserve">
<style type="text/css">
	.st0{fill:none;}
	.st1{fill:#E5E5E5;}
	.st2{fill:#FFFFFF;}
	.st3{fill:#1A62AC;}
</style>
<rect x="-23.8" y="10" class="st0" width="298.8" height="298.8"/>
<path class="st1" d="M209.1,58.4c-2.8-2.8-5.7-5.6-8.5-8.4c-2.8-2.8-5.7-5.7-8.4-8.5C172.5,21.4,160.8,10,148.6,10H56.6
	c-25.3,0-46,20.6-46,46v206.9c0,25.3,20.6,46,46,46h137.9c25.3,0,46-20.6,46-46V102C240.5,89.8,229.2,78,209.1,58.4z M217.5,262.9
	c0,12.7-10.3,23-23,23H56.6c-12.7,0-23-10.3-23-23V56c0-12.7,10.3-23,23-23l83.8,0c8.3,2.1,8.2,12.3,8.2,22.5v35
	c0,6.3,5.2,11.5,11.5,11.5h34.5c11.5,0,23,0.1,23,11.5V262.9z"/>
<g>
	<circle class="st2" cx="188.3" cy="257.1" r="56.6"/>
	<path class="st3" d="M188.3,170.4c-47.9,0-86.7,38.8-86.7,86.7s38.8,86.7,86.7,86.7c47.9,0,86.7-38.8,86.7-86.7
		S236.2,170.4,188.3,170.4z M234.5,269.7h-33.6v33.6h-25.2v-33.6h-33.6v-25.2h33.6v-33.6h25.2v33.6h33.6V269.7z"/>
</g>
</svg>
