<?xml version="1.0" encoding="utf-8"?>
<!-- Generator: Adobe Illustrator 25.2.2, SVG Export Plug-In . SVG Version: 6.00 Build 0)  -->
<svg version="1.1" id="Layer_1" xmlns="http://www.w3.org/2000/svg" xmlns:xlink="http://www.w3.org/1999/xlink" x="0px" y="0px"
	 viewBox="0 0 817 606.6" style="enable-background:new 0 0 817 606.6;" xml:space="preserve">
<style type="text/css">
	.st0{fill:url(#SVGID_1_);}
	.st1{fill:#53C0A2;}
</style>
<linearGradient id="SVGID_1_" gradientUnits="userSpaceOnUse" x1="398.42" y1="595.6376" x2="398.42" y2="10.6566">
	<stop  offset="0" style="stop-color:#53C0A2"/>
	<stop  offset="0.1159" style="stop-color:#5ABDA1"/>
	<stop  offset="0.247" style="stop-color:#69B8A2"/>
	<stop  offset="0.3856" style="stop-color:#7DB0A4"/>
	<stop  offset="0.5293" style="stop-color:#94A3A4"/>
	<stop  offset="0.6771" style="stop-color:#AC90A3"/>
	<stop  offset="0.8282" style="stop-color:#C6769E"/>
	<stop  offset="0.9794" style="stop-color:#DF4796"/>
	<stop  offset="1" style="stop-color:#E33C96"/>
</linearGradient>
<path class="st0" d="M347,382.2c6-4.3,11-9.2,17-13c20.4-13,42.5-20.3,66.6-22.3c24.3-2,47.5,1.9,69.8,11.4
	c11.9,5.1,22.8,11.9,32.7,20.3c13.3,11.3,23.8,24.6,31.8,40.3c16.4,32.4,16.4,65.4,3.3,98c-8.9,21.9-24.1,39.7-44.1,53.3
	c-28.2,19.2-59.2,27.3-92.8,25c-24.1-1.7-46.6-8.9-67-22.5c-17.5-11.6-31.4-26.2-42.1-44.4c-7.9-13.5-11.8-27.8-13.8-42.9
	c-0.4-3.3-1.7-6.4-2.1-9.7c-0.3-2.9,0.5-4.2,3.6-4.2c8.9,0.1,17.7,0.2,26.6,0c3.3-0.1,3.7,1.4,3.8,4.1c0.1,5.9,1,11.7,2.6,17.3
	c6.2,21.6,18.5,38.9,36.7,52c22.8,16.3,48.1,22.1,75.8,19.1c22.3-2.4,41.9-11.3,58.4-26.1c9.2-8.2,16.5-18.1,22-29.5
	c9.9-20.3,11.4-41.3,5-62.4c-4.1-13.6-11.2-26-21.5-36.4c-24.5-24.7-53.9-35.1-88.4-31.9c-21.8,2-40.9,10.3-57.7,24.1
	c-2.8,2.3-4,1.3-6-0.6C360.7,394.8,353.9,388.7,347,382.2z M469.9,264.4c-0.4-4.9,1.8-6.9,6.3-8c24.5-5.5,45.9-17.2,64-34.4
	c12.8-12.2,22.8-27,29.2-43.6c8.6-22.2,9.9-45.3,5-68.6c-3.8-18.1-12.2-33.8-23.4-48.4c-10-13-22.2-23.3-36.1-31.4
	c-20.8-12.2-43.3-18.7-67.5-19.3c-22.6-0.6-44.3,3.1-64.9,12.7C370.3,29,359.2,36,349.2,45c-17.6,15.8-30.7,34.2-37,57.2
	c-2.6,9.5-3.6,19.1-4.5,28.8c-0.3,3.2-0.2,3.8,2.7,3.8c8.9-0.1,17.7-0.1,26.6,0c3,0.1,3.4-1.2,3.6-3.8c0.9-12.8,4-24.8,10.1-36.4
	c5.8-11.1,13.8-20.1,22.6-28.5c4.2-4,9.2-7.3,14.2-10.1c21.1-12,43.7-16.9,67.8-14c23.7,2.8,44.2,12.7,61.4,29.3
	c10.8,10.5,18.7,23.2,23.2,37.3c6,18.9,6.2,37.8-1.6,57c-6.5,16-15.9,29.3-29,40.2c-10.3,8.6-21.8,14.6-34.7,18.7
	c-1.1-6,0.8-11.5,0.6-17.4c-8.2,5.3-13.6,12.9-20.7,18.6c-5.9,4.7-11,10.5-16.5,15.7c-2.7,2.5-2.6,4.5,0.3,6.8
	c3.3,2.6,6.4,5.5,9.6,8.3c6.9,6.3,13.8,12.5,21.1,19.2C470,271.7,470.1,268,469.9,264.4z M323.3,388.6c0.3,3.1-0.9,3.7-3.7,2.7
	c-24.2-8.6-44.1-23.3-55.7-46.1c-15.4-30.2-15.2-60.8,3.6-90.3c7.4-11.6,16.8-20.6,28-28.4c18-12.4,38.1-17.9,59.5-17.8
	c25.7,0.1,48.9,8.3,68.5,25.3c1.6,1.4,2.5,1.7,4.3,0.1c6.6-6.1,13.3-12.1,20-18c1.9-1.6,1.6-2.8-0.1-4.1c-4.5-3.4-8.7-7.2-13.4-10.3
	c-26.4-17.2-55.4-25.1-86.9-23.6c-23.2,1.1-44.8,7.3-64.9,19c-10.7,6.3-20.2,14-29.1,22.8c-15.9,15.7-25.7,35-31,56.1
	c-5.5,22.2-4.5,44.6,4.2,66.6c6.5,16.4,15.1,30.8,27.3,43.4c18.8,19.7,41.5,31.9,67.8,37.9c3.3,0.7,4.8,2.3,4.6,5.8
	c-0.2,4.3,0.4,8.6,1.4,13.4c12.2-10.1,23.2-20.6,34.3-31.1c-13-12.4-26-24.8-39.6-37.8C322.8,379.8,322.9,384.2,323.3,388.6z"/>
<g>
	<path class="st1" d="M374.9,142.2c-2.5-1.3-4.4-3.2-5.9-5.6c-1.4-2.4-2.1-5-2.1-8c0-3,0.7-5.7,2.1-8c1.4-2.4,3.4-4.2,5.9-5.6
		c2.5-1.3,5.3-2,8.4-2c2.6,0,5,0.5,7.1,1.4c2.1,0.9,3.9,2.2,5.3,4l-4.5,4.1c-2-2.4-4.6-3.5-7.6-3.5c-1.9,0-3.5,0.4-5,1.2
		c-1.5,0.8-2.6,2-3.4,3.4s-1.2,3.1-1.2,5c0,1.9,0.4,3.5,1.2,5c0.8,1.5,2,2.6,3.4,3.4c1.5,0.8,3.1,1.2,5,1.2c3,0,5.5-1.2,7.6-3.6
		l4.5,4.1c-1.4,1.8-3.2,3.1-5.3,4c-2.1,0.9-4.5,1.4-7.1,1.4C380.1,144.2,377.3,143.6,374.9,142.2z"/>
	<path class="st1" d="M409.5,121.1c1.4-0.6,2.9-0.9,4.7-0.9v6.2c-0.7-0.1-1.2-0.1-1.5-0.1c-1.9,0-3.4,0.5-4.5,1.6
		c-1.1,1.1-1.6,2.7-1.6,4.8v10.9h-6.7v-23.2h6.4v3.1C407.1,122.5,408.2,121.7,409.5,121.1z"/>
	<path class="st1" d="M432.9,138.2c0.9-0.4,1.8-0.9,2.6-1.7l3.6,3.9c-2.2,2.5-5.4,3.7-9.6,3.7c-2.6,0-4.9-0.5-6.9-1.5
		c-2-1-3.6-2.4-4.6-4.2c-1.1-1.8-1.6-3.9-1.6-6.2c0-2.3,0.5-4.3,1.6-6.1c1.1-1.8,2.6-3.2,4.4-4.3c1.9-1,4-1.5,6.4-1.5
		c2.2,0,4.2,0.5,6,1.4c1.8,0.9,3.3,2.3,4.3,4s1.6,3.9,1.6,6.3l-17.1,3.3c0.5,1.1,1.3,2,2.3,2.6c1,0.6,2.3,0.9,3.9,0.9
		C430.9,138.7,432,138.5,432.9,138.2z M424.6,126.9c-1.1,1.1-1.6,2.6-1.7,4.5l11.3-2.2c-0.3-1.2-1-2.2-1.9-2.9
		c-1-0.7-2.2-1.1-3.5-1.1C427,125.3,425.6,125.8,424.6,126.9z"/>
	<path class="st1" d="M468.7,120.6v23.2h-6.4v-2.7c-1.7,2-4.1,3-7.2,3c-2.2,0-4.2-0.5-5.9-1.5c-1.8-1-3.1-2.4-4.2-4.2
		c-1-1.8-1.5-3.9-1.5-6.3c0-2.4,0.5-4.5,1.5-6.3c1-1.8,2.4-3.2,4.2-4.2c1.8-1,3.7-1.5,5.9-1.5c3,0,5.3,0.9,6.9,2.8v-2.5H468.7z
		 M460.4,136.8c1.1-1.2,1.7-2.7,1.7-4.7c0-2-0.6-3.5-1.7-4.7c-1.1-1.2-2.5-1.7-4.2-1.7c-1.7,0-3.1,0.6-4.3,1.7
		c-1.1,1.2-1.7,2.7-1.7,4.7c0,2,0.6,3.5,1.7,4.7c1.1,1.2,2.5,1.7,4.3,1.7C457.9,138.6,459.3,138,460.4,136.8z"/>
	<path class="st1" d="M488.8,142.6c-0.7,0.5-1.5,0.9-2.4,1.1c-1,0.2-2,0.4-3,0.4c-2.8,0-4.9-0.7-6.4-2.1c-1.5-1.4-2.2-3.5-2.2-6.2
		v-20.3h6.7v5.6h5.7v5.2h-5.7v9.4c0,1,0.2,1.7,0.7,2.3c0.5,0.5,1.2,0.8,2.1,0.8c1,0,2-0.3,2.8-0.9L488.8,142.6z"/>
	<path class="st1" d="M506.8,138.2c0.9-0.4,1.8-0.9,2.6-1.7l3.6,3.9c-2.2,2.5-5.4,3.7-9.6,3.7c-2.6,0-4.9-0.5-6.9-1.5
		c-2-1-3.6-2.4-4.6-4.2c-1.1-1.8-1.6-3.9-1.6-6.2c0-2.3,0.5-4.3,1.6-6.1c1.1-1.8,2.6-3.2,4.4-4.3c1.9-1,4-1.5,6.4-1.5
		c2.2,0,4.2,0.5,6,1.4c1.8,0.9,3.3,2.3,4.3,4c1.1,1.8,1.6,3.9,1.6,6.3l-17.1,3.3c0.5,1.1,1.3,2,2.3,2.6c1,0.6,2.3,0.9,3.9,0.9
		C504.8,138.7,505.8,138.5,506.8,138.2z M498.4,126.9c-1.1,1.1-1.6,2.6-1.7,4.5l11.3-2.2c-0.3-1.2-1-2.2-1.9-2.9
		c-1-0.7-2.2-1.1-3.5-1.1C500.9,125.3,499.5,125.8,498.4,126.9z"/>
</g>
<g>
	<path class="st1" d="M302.8,319.2l-5.8-8.4h-0.3h-6.1v8.4h-7v-30.1h13c2.7,0,5,0.4,7,1.3c2,0.9,3.5,2.2,4.5,3.8
		c1.1,1.6,1.6,3.6,1.6,5.8c0,2.2-0.5,4.2-1.6,5.8c-1.1,1.6-2.6,2.9-4.6,3.7l6.8,9.7H302.8z M301,296.1c-1.1-0.9-2.7-1.4-4.8-1.4
		h-5.7v10.5h5.7c2.1,0,3.7-0.5,4.8-1.4c1.1-0.9,1.6-2.2,1.6-3.9C302.6,298.3,302.1,297,301,296.1z"/>
	<path class="st1" d="M329.6,313.6c0.9-0.4,1.8-0.9,2.6-1.7l3.6,3.9c-2.2,2.5-5.4,3.7-9.6,3.7c-2.6,0-4.9-0.5-6.9-1.5
		c-2-1-3.6-2.4-4.6-4.2c-1.1-1.8-1.6-3.9-1.6-6.2c0-2.3,0.5-4.3,1.6-6.1c1.1-1.8,2.6-3.2,4.4-4.3c1.9-1,4-1.5,6.4-1.5
		c2.2,0,4.2,0.5,6,1.4c1.8,0.9,3.3,2.3,4.3,4c1.1,1.8,1.6,3.9,1.6,6.3l-17.1,3.3c0.5,1.1,1.3,2,2.3,2.6c1,0.6,2.3,0.9,3.9,0.9
		C327.6,314.2,328.7,314,329.6,313.6z M321.3,302.4c-1.1,1.1-1.6,2.6-1.7,4.5l11.3-2.2c-0.3-1.2-1-2.2-1.9-2.9
		c-1-0.7-2.2-1.1-3.5-1.1C323.7,300.8,322.3,301.3,321.3,302.4z"/>
	<path class="st1" d="M364.4,296.1l-9.8,23.2h-6.9l-9.7-23.2h6.9l6.4,15.8l6.6-15.8H364.4z"/>
	<path class="st1" d="M367.5,291.8c-0.8-0.7-1.2-1.6-1.2-2.7c0-1.1,0.4-2,1.2-2.7s1.8-1.1,3-1.1c1.2,0,2.2,0.3,3,1
		c0.8,0.7,1.2,1.5,1.2,2.6c0,1.1-0.4,2-1.2,2.8c-0.8,0.7-1.8,1.1-3,1.1C369.3,292.8,368.3,292.5,367.5,291.8z M367.2,296.1h6.7v23.2
		h-6.7V296.1z"/>
	<path class="st1" d="M395,313.6c0.9-0.4,1.8-0.9,2.6-1.7l3.6,3.9c-2.2,2.5-5.4,3.7-9.6,3.7c-2.6,0-4.9-0.5-6.9-1.5
		c-2-1-3.6-2.4-4.6-4.2c-1.1-1.8-1.6-3.9-1.6-6.2c0-2.3,0.5-4.3,1.6-6.1c1.1-1.8,2.6-3.2,4.4-4.3c1.9-1,4-1.5,6.4-1.5
		c2.2,0,4.2,0.5,6,1.4c1.8,0.9,3.3,2.3,4.3,4c1.1,1.8,1.6,3.9,1.6,6.3l-17.1,3.3c0.5,1.1,1.3,2,2.3,2.6c1,0.6,2.3,0.9,3.9,0.9
		C393,314.2,394.1,314,395,313.6z M386.7,302.4c-1.1,1.1-1.6,2.6-1.7,4.5l11.3-2.2c-0.3-1.2-1-2.2-1.9-2.9c-1-0.7-2.2-1.1-3.5-1.1
		C389.1,300.8,387.8,301.3,386.7,302.4z"/>
	<path class="st1" d="M444,296.1v12.8c0,3.4-0.9,6.1-2.8,7.9c-1.9,1.9-4.5,2.8-8,2.8c-1.7,0-3.1-0.3-4.4-0.8
		c-1.3-0.5-2.3-1.3-3.2-2.5c-0.9,1.1-1.9,2-3.2,2.5c-1.3,0.5-2.8,0.8-4.5,0.8c-3.5,0-6.1-0.9-8-2.8c-1.8-1.9-2.8-4.5-2.8-7.9v-12.8
		h6.7v12.3c0,1.9,0.3,3.3,1,4.2c0.7,0.9,1.7,1.4,3.1,1.4c1.4,0,2.5-0.5,3.2-1.4c0.7-0.9,1-2.3,1-4.2v-12.3h6.7v12.3
		c0,1.9,0.3,3.3,1,4.2c0.7,0.9,1.8,1.4,3.2,1.4c1.4,0,2.4-0.5,3.1-1.4c0.7-0.9,1-2.3,1-4.2v-12.3H444z"/>
</g>
<g>
	<path class="st1" d="M396.8,485.4c-2.2-0.6-4-1.5-5.4-2.5l2.4-5.3c1.3,0.9,2.8,1.7,4.6,2.3c1.8,0.6,3.6,0.9,5.3,0.9
		c2,0,3.4-0.3,4.4-0.9c0.9-0.6,1.4-1.4,1.4-2.3c0-0.7-0.3-1.3-0.8-1.8c-0.6-0.5-1.3-0.9-2.2-1.1c-0.9-0.3-2.1-0.6-3.6-0.9
		c-2.3-0.5-4.2-1.1-5.6-1.6c-1.5-0.5-2.7-1.4-3.8-2.6c-1-1.2-1.6-2.8-1.6-4.8c0-1.8,0.5-3.3,1.4-4.8s2.4-2.5,4.3-3.4
		c1.9-0.8,4.2-1.2,7-1.2c1.9,0,3.8,0.2,5.6,0.7c1.8,0.5,3.4,1.1,4.8,2l-2.2,5.3c-2.8-1.6-5.6-2.4-8.4-2.4c-2,0-3.4,0.3-4.3,0.9
		c-0.9,0.6-1.4,1.5-1.4,2.5s0.5,1.8,1.6,2.3c1.1,0.5,2.7,1,4.9,1.5c2.3,0.5,4.2,1.1,5.6,1.6s2.7,1.4,3.8,2.6c1,1.2,1.6,2.8,1.6,4.8
		c0,1.7-0.5,3.3-1.4,4.7c-1,1.4-2.4,2.5-4.3,3.4s-4.3,1.2-7,1.2C401.3,486.3,399,486,396.8,485.4z"/>
	<path class="st1" d="M421.1,458.4c-0.8-0.7-1.2-1.6-1.2-2.7s0.4-2,1.2-2.7c0.8-0.7,1.8-1.1,3-1.1c1.2,0,2.2,0.3,3,1
		c0.8,0.7,1.2,1.5,1.2,2.6c0,1.1-0.4,2-1.2,2.8s-1.8,1.1-3,1.1C422.9,459.4,421.9,459.1,421.1,458.4z M420.8,462.7h6.7v23.2h-6.7
		V462.7z"/>
	<path class="st1" d="M457.7,462.7v19.3c0,4.2-1.1,7.4-3.3,9.5c-2.2,2.1-5.4,3.1-9.7,3.1c-2.2,0-4.4-0.3-6.4-0.8
		c-2-0.5-3.7-1.3-5-2.4l2.7-4.8c1,0.8,2.2,1.4,3.7,1.9c1.5,0.5,3,0.7,4.5,0.7c2.3,0,4-0.5,5.1-1.6c1.1-1,1.7-2.6,1.7-4.8v-1
		c-1.8,1.9-4.2,2.9-7.3,2.9c-2.1,0-4.1-0.5-5.8-1.4c-1.8-0.9-3.2-2.2-4.2-3.9c-1-1.7-1.5-3.6-1.5-5.9c0-2.2,0.5-4.2,1.5-5.9
		s2.4-3,4.2-3.9s3.7-1.4,5.8-1.4c3.4,0,5.9,1.1,7.7,3.3v-3H457.7z M449.3,477.6c1.1-1,1.7-2.4,1.7-4.1c0-1.7-0.6-3.1-1.7-4.1
		c-1.1-1-2.6-1.6-4.4-1.6s-3.2,0.5-4.4,1.6c-1.1,1-1.7,2.4-1.7,4.1c0,1.7,0.6,3.1,1.7,4.1c1.1,1,2.6,1.6,4.4,1.6
		S448.2,478.7,449.3,477.6z"/>
	<path class="st1" d="M484.9,464.9c1.8,1.7,2.6,4.3,2.6,7.7v13.3h-6.7v-12.2c0-1.8-0.4-3.2-1.2-4.1c-0.8-0.9-2-1.4-3.5-1.4
		c-1.7,0-3,0.5-4,1.6c-1,1-1.5,2.6-1.5,4.7v11.5h-6.7v-23.2h6.4v2.7c0.9-1,2-1.7,3.3-2.3c1.3-0.5,2.8-0.8,4.3-0.8
		C480.8,462.3,483.2,463.2,484.9,464.9z"/>
</g>
</svg>
