<?xml version="1.0" encoding="utf-8"?>
<!-- Generator: Adobe Illustrator 25.0.1, SVG Export Plug-In . SVG Version: 6.00 Build 0)  -->
<svg version="1.1" id="Layer_1" xmlns="http://www.w3.org/2000/svg" xmlns:xlink="http://www.w3.org/1999/xlink" x="0px" y="0px"
	 viewBox="0 0 24 24" style="enable-background:new 0 0 24 24;" xml:space="preserve">
<style type="text/css">
	.st0{fill:none;}
	.st1{fill:#FFFFFF;}
</style>
<rect x="0" y="0" class="st0" width="24" height="24"/>
<g>
	<path class="st1" d="M12.9,10.8L12.9,10.8C12.9,10.8,12.9,10.8,12.9,10.8L12.9,10.8z"/>
	<path class="st1" d="M19.5,0h-15C2,0,0,2,0,4.5v15C0,22,2,24,4.5,24h15c2.5,0,4.5-2,4.5-4.5v-15C24,2,22,0,19.5,0z M7.4,20.4H3.7
		l0-11.2h3.7L7.4,20.4z M5.5,7.7L5.5,7.7c-1.2,0-2-0.8-2-1.9c0-1.1,0.8-1.9,2-1.9c1.2,0,2,0.8,2,1.9C7.5,6.9,6.7,7.7,5.5,7.7z
		 M20.3,20.4h-3.8v-6.1c0-1.5-0.4-2.5-1.7-2.5c-1,0-1.5,0.7-1.8,1.3c-0.1,0.2-0.1,0.6-0.1,0.9v6.3H9.2l0-11.2h3.8l0,1.6
		C13.4,10,14.2,9,16.2,9c2.4,0,4.2,1.6,4.2,4.9V20.4z"/>
</g>
</svg>
