<?xml version="1.0" encoding="utf-8"?>
<!-- Generator: Adobe Illustrator 25.0.1, SVG Export Plug-In . SVG Version: 6.00 Build 0)  -->
<svg version="1.1" id="Layer_1" xmlns="http://www.w3.org/2000/svg" xmlns:xlink="http://www.w3.org/1999/xlink" x="0px" y="0px"
	 viewBox="0 0 24 24" style="enable-background:new 0 0 24 24;" xml:space="preserve">
<style type="text/css">
	.st0{fill:none;}
	.st1{fill-rule:evenodd;clip-rule:evenodd;fill:#FFFFFF;}
	.st2{fill:#FFFFFF;}
</style>
<rect x="0" y="0" class="st0" width="24" height="24"/>
<g>
	<path class="st1" d="M12,0.5C5.4,0.5,0.1,5.8,0.1,12.4c0,5.3,3.4,9.7,8.2,11.3c0.6,0.1,0.8-0.3,0.8-0.6c0-0.3,0-1.2,0-2.2
		c-3.3,0.7-4-1.4-4-1.4c-0.5-1.4-1.3-1.7-1.3-1.7C2.6,17,3.8,17,3.8,17c1.2,0.1,1.8,1.2,1.8,1.2c1.1,1.8,2.8,1.3,3.5,1
		c0.1-0.8,0.4-1.3,0.8-1.6c-2.7-0.3-5.4-1.3-5.4-5.9c0-1.3,0.5-2.4,1.2-3.2C5.5,8.3,5.1,7,5.8,5.4c0,0,1-0.3,3.3,1.2
		c1-0.3,2-0.4,3-0.4c1,0,2,0.1,3,0.4c2.3-1.5,3.3-1.2,3.3-1.2c0.6,1.6,0.2,2.9,0.1,3.2c0.8,0.8,1.2,1.9,1.2,3.2
		c0,4.6-2.8,5.6-5.4,5.9c0.4,0.4,0.8,1.1,0.8,2.2c0,1.6,0,2.9,0,3.3c0,0.3,0.2,0.7,0.8,0.6c4.7-1.6,8.2-6.1,8.2-11.3
		C24,5.8,18.6,0.5,12,0.5z"/>
	<path class="st2" d="M4.6,17.6c0,0.1-0.1,0.1-0.2,0c-0.1,0-0.1-0.1-0.1-0.2c0-0.1,0.1-0.1,0.2,0C4.6,17.4,4.6,17.5,4.6,17.6
		L4.6,17.6z M4.5,17.5"/>
	<path class="st2" d="M5.1,18.1c-0.1,0.1-0.2,0-0.2-0.1c-0.1-0.1-0.1-0.2,0-0.2c0.1-0.1,0.2,0,0.2,0.1C5.1,18,5.2,18.1,5.1,18.1
		L5.1,18.1z M5,18"/>
	<path class="st2" d="M5.6,18.8c-0.1,0.1-0.2,0-0.3-0.1c-0.1-0.1-0.1-0.2,0-0.3c0.1-0.1,0.2,0,0.3,0.1C5.6,18.6,5.6,18.8,5.6,18.8
		L5.6,18.8z M5.6,18.8"/>
	<path class="st2" d="M6.2,19.5c-0.1,0.1-0.2,0.1-0.3,0c-0.1-0.1-0.1-0.2-0.1-0.3c0.1-0.1,0.2-0.1,0.3,0C6.3,19.3,6.3,19.4,6.2,19.5
		L6.2,19.5z M6.2,19.5"/>
	<path class="st2" d="M7.1,19.9C7.1,20,6.9,20,6.8,20c-0.1,0-0.2-0.2-0.2-0.2c0-0.1,0.2-0.1,0.3-0.1C7,19.7,7.1,19.8,7.1,19.9
		L7.1,19.9z M7.1,19.9"/>
	<path class="st2" d="M8.1,19.9c0,0.1-0.1,0.2-0.3,0.2c-0.1,0-0.3-0.1-0.3-0.2c0-0.1,0.1-0.2,0.3-0.2C8,19.8,8.1,19.8,8.1,19.9
		L8.1,19.9z M8.1,19.9"/>
	<path class="st2" d="M9,19.8C9,19.9,8.9,20,8.8,20c-0.1,0-0.3,0-0.3-0.1c0-0.1,0.1-0.2,0.2-0.2C8.8,19.6,9,19.7,9,19.8L9,19.8z
		 M9,19.8"/>
</g>
</svg>
