<?xml version="1.0" encoding="utf-8"?>
<!-- Generator: Adobe Illustrator 25.2.1, SVG Export Plug-In . SVG Version: 6.00 Build 0)  -->
<svg version="1.1" id="Layer_1" xmlns="http://www.w3.org/2000/svg" xmlns:xlink="http://www.w3.org/1999/xlink" x="0px" y="0px"
	 viewBox="0 0 694 381" style="enable-background:new 0 0 694 381;" xml:space="preserve">
<style type="text/css">
	.st0{fill:#52BFA1;}
</style>
<g>
	<path class="st0" d="M420.3,349.5h-29c-1.5-17.4-13.1-33.4-29-39.2V140.4c7.3-4.4,13.1-13.1,13.1-23.2h-13.1h-29h-13.1
		c0,10.2,5.8,18.9,13.1,23.2v169.9c-16,5.8-27.6,20.3-29,39.2h-29c-8.7,0-14.5,5.8-14.5,14.5v14.5h174.2V364
		C434.8,355.3,427.6,349.5,420.3,349.5z"/>
	<path class="st0" d="M519,233.3l-49.4-130.7c-1.5-5.8-11.6-5.8-13.1,0l-49.4,130.7h-17.4c10.2,30.5,39.2,52.3,72.6,52.3
		s62.4-21.8,72.6-52.3H519z M423.2,233.3l40.6-107.4l40.6,107.4H423.2z"/>
	<path class="st0" d="M231.6,88.2c7.3,0,11.6-4.4,13.1-10.2c4.4-1.5,10.2-4.4,14.5-7.3c11.6-5.8,23.2-11.6,36.3-11.6
		c13.1,0,20.3,5.8,24.7,10.2c0,1.5,0,2.9,0,4.4c0,14.5,11.6,26.1,26.1,26.1s26.1-11.6,26.1-26.1c0-1.5,0-2.9,0-4.4
		c4.4-4.4,11.6-10.2,24.7-10.2s26.1,5.8,36.3,11.6c4.4,2.9,10.2,4.4,14.5,7.3c1.5,5.8,7.3,10.2,13.1,10.2c8.7,0,14.5-7.3,14.5-14.5
		c0-8.7-7.3-14.5-14.5-14.5c-4.4,0-7.3,1.5-10.2,4.4c-2.9-1.5-7.3-2.9-11.6-5.8c-13.1-5.8-26.1-13.1-43.6-13.1
		c-14.5,0-24.7,5.8-31.9,11.6c-2.9-2.9-7.3-5.8-11.6-7.3c5.8-2.9,8.7-8.7,8.7-14.5c0-10.2-17.4-31.9-17.4-31.9s-17.4,21.8-17.4,31.9
		c0,7.3,4.4,11.6,8.7,14.5c-4.4,1.5-8.7,4.4-11.6,7.3c-7.3-5.8-17.4-11.6-31.9-11.6c-16,0-30.5,7.3-43.6,13.1
		c1.5,1.5-2.9,4.4-5.8,5.8c-2.9-2.9-5.8-4.4-10.2-4.4c-8.7,0-14.5,7.3-14.5,14.5C217.1,80.9,222.9,88.2,231.6,88.2z"/>
	<path class="st0" d="M304.2,233.3h-17.4l-49.4-130.7c-1.5-5.8-11.6-5.8-13.1,0L175,233.3h-16c10.2,30.5,39.2,52.3,72.6,52.3
		C265,284.1,292.6,262.4,304.2,233.3z M190.9,233.3l40.6-107.4l40.6,107.4H190.9z"/>
</g>
</svg>
