<?xml version="1.0" encoding="utf-8"?>
<!-- Generator: Adobe Illustrator 25.2.1, SVG Export Plug-In . SVG Version: 6.00 Build 0)  -->
<svg version="1.1" id="Layer_1" xmlns="http://www.w3.org/2000/svg" xmlns:xlink="http://www.w3.org/1999/xlink" x="0px" y="0px"
	 viewBox="0 0 694 381" style="enable-background:new 0 0 694 381;" xml:space="preserve">
<style type="text/css">
	.st0{fill:#52BFA1;}
</style>
<g>
	<path class="st0" d="M287.5,121.4c-10,0-18,8.1-18,18c0,10,8.1,18,18,18s18-8.1,18-18C305.6,129.4,297.5,121.4,287.5,121.4z"/>
	<path class="st0" d="M497.8,73.5c-3-3.4-7.2-5.3-11.6-5.4c-34.2-0.9-77.4-37.4-105.9-51.7c-17.6-8.8-29.3-14.6-38-16.2
		c-0.9-0.1-1.8-0.2-2.7-0.2s-1.8,0.1-2.7,0.2c-8.8,1.5-20.4,7.4-38,16.2C270.3,30.7,227.1,67.2,193,68.1c-4.4,0.1-8.6,2.1-11.6,5.4
		c-3,3.4-4.6,7.8-4.3,12.4C184.4,235,237.9,327.3,331.8,381c2.4,1.4,5.2,2.1,7.9,2.1s5.4-0.7,7.9-2.1
		c93.9-53.6,147.3-145.9,154.7-295.1C502.4,81.3,500.8,76.9,497.8,73.5z M250.7,156.7c0-29.9,24.3-54.2,54.2-54.2
		s54.2,24.2,54.2,54.2c0,29.9-24.3,54.2-54.2,54.2C274.9,210.9,250.7,186.6,250.7,156.7z M424.3,276.1c-5.9,5.9-29.7,4.7-32.1,2.3
		l-3.9-3.9h-15.5c-3.1,0-5.5-2.5-5.5-5.5v-15.3H352c-3.1,0-5.5-2.5-5.5-5.5v-15.3h-15.3c-3.1,0-5.5-2.5-5.5-5.5v-9.6
		c8.9-3,16.9-7.9,23.5-14.2l53.6,53.6c2.4,2.4,6.2,2.4,8.6,0s2.4-6.2,0-8.6l-54.2-54.2c2.8-3.9,5.2-8.1,7.1-12.6l62.2,62.2
		C428.9,246.4,430.2,270.2,424.3,276.1z"/>
</g>
</svg>
